<svg width="20" height="20" viewBox="0 0 20 20" fill="none" xmlns="http://www.w3.org/2000/svg">
<path id="Vector" d="M10.5 9V9.5H11H14.5V10.5H11H10.5V11V14.5H9.5V11V10.5H9H5.5V9.5H9H9.5V9V5.5H10.5V9ZM18.5 10C18.5 5.31286 14.6871 1.5 10 1.5C5.31286 1.5 1.5 5.31286 1.5 10C1.5 14.6871 5.31286 18.5 10 18.5C14.6871 18.5 18.5 14.6871 18.5 10ZM0.5 10C0.5 4.75314 4.75314 0.5 10 0.5C15.2469 0.5 19.5 4.75314 19.5 10C19.5 15.2469 15.2469 19.5 10 19.5C4.75314 19.5 0.5 15.2469 0.5 10Z" fill="#FF0000" stroke="black"/>
</svg>
